<?xml version="1.0" standalone="no"?>
<!DOCTYPE svg PUBLIC "-//W3C//DTD SVG 20010904//EN"
 "http://www.w3.org/TR/2001/REC-SVG-20010904/DTD/svg10.dtd">
<svg version="1.0" xmlns="http://www.w3.org/2000/svg"
 width="1184.000000pt" height="1184.000000pt" viewBox="0 0 1184.000000 1184.000000"
 preserveAspectRatio="xMidYMid meet">

<g transform="translate(0.000000,1184.000000) scale(0.100000,-0.100000)"
fill="#ea580c" stroke="none">
<path d="M3809 10288 c-284 -142 -349 -414 -181 -753 62 -125 131 -231 281
-433 224 -300 269 -371 360 -557 66 -136 106 -253 132 -387 18 -97 21 -135 16
-273 -7 -209 -43 -349 -142 -549 l-44 -91 57 60 c63 65 143 181 180 260 29 60
63 144 67 165 2 8 11 44 20 80 30 120 31 383 1 525 -8 35 -56 199 -65 220 -48
108 -157 321 -171 335 -3 3 -14 19 -24 35 -25 40 -186 255 -209 280 -108 115
-310 392 -365 501 -67 133 -82 265 -41 371 13 34 94 148 117 165 32 22 106 88
100 88 -3 0 -43 -19 -89 -42z"/>
<path d="M10350 9967 c-3 -3 -19 -7 -35 -10 -51 -8 -152 -64 -197 -110 -24
-23 -68 -72 -99 -107 -106 -123 -134 -155 -140 -160 -3 -3 -50 -54 -103 -115
-54 -60 -131 -146 -171 -190 -40 -44 -175 -195 -301 -335 l-228 -255 -493
-297 c-271 -163 -523 -313 -560 -334 -38 -22 -77 -44 -88 -51 -11 -7 -29 -17
-40 -23 -11 -6 -33 -19 -50 -30 -16 -11 -39 -24 -50 -30 -11 -6 -29 -16 -40
-23 -11 -7 -38 -24 -60 -37 -23 -14 -50 -30 -60 -37 -11 -6 -299 -179 -640
-385 -707 -425 -644 -388 -684 -409 -26 -15 -37 -15 -93 -4 -139 29 -251 40
-408 40 -184 0 -243 -7 -505 -59 -11 -2 -31 -9 -45 -14 -14 -5 -27 -9 -30 -9
-15 4 -180 -62 -280 -111 -63 -30 -117 -56 -120 -57 -3 0 -24 -13 -47 -28 -24
-15 -47 -27 -52 -27 -5 0 -11 -3 -13 -7 -1 -5 -30 -26 -63 -48 -33 -22 -71
-50 -85 -61 -151 -127 -278 -256 -362 -369 -33 -44 -65 -87 -71 -95 -7 -8 -18
-26 -25 -40 -7 -14 -25 -45 -41 -70 -40 -63 -103 -191 -137 -280 -15 -41 -29
-77 -30 -79 -2 -2 -25 17 -51 42 -171 161 -380 287 -583 352 -47 15 -92 30
-100 33 -36 12 -58 17 -145 30 -232 36 -413 30 -625 -19 -92 -21 -173 -45
-205 -59 -11 -5 -54 -25 -95 -43 -41 -19 -106 -52 -144 -75 -37 -23 -72 -42
-77 -42 -5 0 -9 -4 -9 -8 0 -4 -15 -16 -32 -27 -18 -10 -38 -24 -45 -29 -6 -6
-51 -47 -100 -91 -49 -44 -103 -98 -121 -120 -17 -22 -42 -52 -55 -66 -14 -14
-32 -40 -41 -57 -9 -18 -21 -32 -26 -32 -6 0 -10 -4 -10 -9 0 -5 -18 -39 -40
-76 -87 -142 -152 -309 -191 -495 -19 -87 -23 -137 -24 -295 l0 -190 -135 3
c-215 4 -220 -2 -220 -248 0 -96 2 -193 4 -215 3 -22 7 -62 10 -90 3 -27 12
-97 21 -155 21 -133 21 -136 34 -190 5 -25 13 -58 16 -75 7 -36 13 -58 16 -65
1 -3 3 -9 4 -15 2 -15 44 -155 60 -202 8 -24 22 -64 31 -90 26 -74 30 -83 63
-156 17 -37 31 -70 31 -74 0 -19 164 -318 211 -384 10 -15 19 -32 19 -38 0 -6
5 -11 10 -11 6 0 10 -4 10 -10 0 -5 7 -18 15 -27 8 -10 39 -52 70 -93 93 -126
192 -240 314 -360 118 -117 155 -149 262 -235 46 -37 94 -75 106 -86 12 -10
35 -25 50 -33 15 -8 38 -24 50 -35 12 -12 27 -21 33 -21 5 0 10 -4 10 -10 0
-5 5 -10 11 -10 6 0 31 -15 57 -32 26 -18 65 -42 87 -54 22 -12 83 -45 135
-74 52 -29 113 -60 135 -70 22 -10 72 -32 110 -50 39 -18 93 -41 120 -52 28
-11 64 -25 80 -33 81 -35 446 -147 520 -159 11 -2 52 -11 90 -20 57 -14 261
-49 410 -71 32 -5 100 -11 295 -25 122 -9 630 -6 660 4 8 2 57 7 109 10 51 4
96 8 100 10 3 2 31 7 61 11 30 3 93 13 140 21 47 8 101 17 120 20 19 3 73 15
120 26 47 11 92 21 100 23 8 1 22 5 30 8 8 3 52 15 98 27 92 24 340 107 417
140 28 11 63 26 80 33 16 7 97 45 180 86 82 41 152 75 155 76 3 0 16 8 30 16
14 9 54 33 90 54 317 187 617 444 867 740 23 28 50 60 60 72 10 11 24 29 31
40 6 10 45 66 85 124 80 117 75 109 152 248 49 88 155 312 155 326 0 3 9 24
19 48 19 42 60 167 100 303 45 155 92 412 106 579 3 39 8 87 11 107 3 20 6
105 6 188 0 136 -2 155 -19 179 -37 49 -48 51 -362 51 l-293 0 5 23 c3 12 15
58 27 102 89 348 76 743 -37 1100 -37 117 -65 185 -126 304 l-38 74 189 186
c105 102 429 422 721 711 887 878 1115 1100 1146 1119 17 10 136 73 265 139
129 66 282 145 339 176 58 31 108 56 113 56 5 0 26 11 48 25 21 13 88 49 147
79 59 29 155 79 212 110 58 31 110 56 116 56 6 0 15 4 21 9 5 5 54 32 109 60
93 47 145 86 186 138 24 30 76 142 84 182 32 153 -19 324 -128 430 -47 47
-156 112 -196 118 -72 10 -81 14 -81 38 0 13 -5 25 -11 27 -5 2 -11 10 -12 19
-5 31 -80 120 -134 159 -80 57 -152 81 -258 87 -49 3 -92 3 -95 0z m205 -241
c109 -65 156 -206 103 -314 -15 -33 -132 -155 -417 -436 -218 -214 -452 -446
-521 -515 -69 -69 -348 -345 -620 -613 -272 -269 -642 -633 -821 -810 -295
-292 -784 -775 -1707 -1686 -180 -177 -442 -437 -582 -576 -140 -139 -262
-256 -272 -259 -9 -3 -24 0 -34 8 -27 19 -12 49 76 146 41 45 99 110 129 143
101 113 374 418 427 476 44 48 111 123 179 200 32 36 63 70 69 75 6 6 24 26
40 45 35 43 149 171 196 221 19 20 60 65 90 100 30 35 57 66 61 69 5 4 242
269 438 489 82 93 168 187 201 222 14 14 50 55 80 90 30 35 75 87 101 114 25
28 64 70 85 95 21 25 42 47 45 50 3 3 128 142 278 310 150 168 306 341 346
385 39 44 90 100 111 125 21 25 42 47 45 50 3 3 50 55 104 115 54 61 130 146
170 190 40 44 90 100 111 125 22 24 46 51 54 60 8 9 51 56 95 105 44 49 89 98
100 110 11 12 35 39 54 61 19 21 66 75 106 119 40 44 101 112 135 150 35 39
71 79 79 89 9 10 34 38 56 62 22 23 60 66 85 95 25 28 52 59 60 68 9 9 49 54
90 100 41 47 82 92 90 101 8 9 44 49 80 89 36 41 81 92 101 114 51 57 107 78
192 73 49 -3 80 -12 112 -30z m401 -328 c93 -63 134 -200 90 -303 -29 -69 -73
-102 -246 -190 -91 -45 -212 -108 -269 -139 -58 -31 -108 -56 -112 -56 -5 0
-32 -14 -60 -31 -81 -48 -193 -103 -203 -101 -5 2 -18 -5 -29 -15 -12 -10 104
106 258 257 153 151 313 309 355 351 63 62 82 89 108 151 18 42 32 84 32 92 0
24 23 19 76 -16z m-2418 -1316 c-18 -20 -36 -39 -39 -42 -3 -3 -88 -97 -189
-210 -101 -113 -198 -221 -216 -240 -17 -19 -58 -64 -90 -100 -60 -67 -79 -79
-394 -239 -36 -19 -85 -44 -110 -58 -25 -13 -88 -46 -140 -72 -131 -67 -344
-178 -471 -245 l-106 -56 -111 52 c-62 29 -112 55 -112 58 1 3 136 86 301 185
165 99 317 190 337 202 20 13 46 27 57 33 11 6 34 19 50 30 17 10 46 27 65 37
19 9 51 28 70 41 19 13 44 28 55 33 22 11 38 20 100 60 22 14 47 29 55 32 8 4
215 128 460 276 245 148 449 267 453 264 5 -3 -6 -22 -25 -41z m-1012 -1129
c-4 -5 -42 -46 -84 -93 -109 -119 -129 -142 -154 -171 -13 -14 -47 -51 -75
-83 l-53 -57 -25 25 c-14 14 -30 26 -35 26 -6 0 -10 3 -10 8 0 4 -23 22 -50
41 -28 19 -47 38 -42 43 11 11 194 108 203 108 5 0 34 15 66 34 139 81 291
150 259 119z m-1556 -103 c47 -5 108 -12 135 -16 62 -8 275 -62 289 -73 6 -4
24 -11 40 -15 50 -12 256 -110 296 -140 8 -7 28 -18 43 -26 45 -22 242 -175
242 -187 0 -6 -36 -51 -81 -99 -45 -49 -93 -104 -108 -122 l-28 -32 -51 44
c-29 24 -79 61 -112 84 -61 41 -222 132 -234 132 -3 0 -44 15 -91 33 -47 19
-88 34 -93 35 -4 0 -31 6 -60 12 -30 6 -67 13 -83 16 -16 3 -46 9 -66 13 -50
12 -295 11 -383 0 -38 -5 -115 -20 -170 -34 -101 -25 -287 -93 -293 -107 -2
-4 -10 -8 -18 -8 -8 0 -27 -8 -42 -18 -15 -10 -67 -45 -117 -78 -120 -78 -311
-269 -392 -391 -114 -170 -189 -353 -229 -558 -25 -125 -25 -405 0 -530 20
-101 69 -266 91 -307 8 -14 15 -29 15 -32 0 -3 -81 -6 -180 -6 l-180 0 -11 28
c-12 32 -46 156 -53 192 -2 14 -9 45 -15 70 -37 163 -35 471 4 650 3 14 8 39
10 55 19 105 113 375 142 403 7 7 13 20 13 27 0 16 90 168 102 173 4 2 8 10 8
18 0 8 4 14 8 14 5 0 14 11 20 25 45 97 357 400 485 468 12 7 42 26 67 42 185
119 512 227 734 241 45 3 83 8 85 10 8 7 175 4 261 -6z m50 -557 c121 -20 280
-76 392 -136 99 -53 237 -154 238 -173 0 -5 -12 -22 -28 -37 l-27 -26 -35 30
c-101 88 -294 190 -435 229 -123 34 -128 35 -320 35 -174 0 -184 -1 -294 -33
-160 -46 -326 -126 -416 -201 -80 -67 -216 -214 -261 -281 -27 -41 -49 -77
-49 -80 -1 -3 -12 -25 -25 -50 -112 -209 -146 -486 -96 -775 10 -54 74 -227
107 -287 l37 -68 -52 0 -52 0 -32 68 c-90 195 -126 373 -118 592 3 69 8 139
11 155 66 339 219 590 490 803 9 7 63 43 120 80 77 49 260 122 344 137 19 3
37 8 41 10 3 2 33 7 66 10 32 4 61 9 64 11 10 10 251 1 330 -13z m55 -316
c119 -36 281 -122 357 -189 l26 -24 -75 -84 c-113 -128 -225 -251 -253 -281
-14 -14 -50 -55 -80 -90 -30 -35 -57 -66 -60 -69 -4 -3 -51 -54 -105 -115 -54
-60 -130 -146 -170 -190 -171 -189 -216 -242 -232 -275 -19 -38 -28 -176 -12
-185 5 -4 9 -13 9 -21 0 -12 -34 -14 -208 -14 l-208 0 -36 48 c-60 79 -138
249 -152 332 -3 19 -10 53 -14 75 -10 54 -9 257 1 324 20 125 98 307 179 411
50 65 171 177 242 223 43 29 82 52 86 52 3 0 22 8 41 17 89 44 152 64 224 73
27 3 52 9 55 12 3 3 73 3 155 0 119 -5 167 -11 230 -30z m-3110 -12 c216 -35
418 -117 587 -238 96 -69 125 -94 217 -191 l63 -68 -6 -51 c-14 -103 -13 -103
-60 -39 -62 83 -169 189 -261 256 -99 72 -274 158 -380 187 -44 12 -87 24 -95
27 -71 24 -376 36 -455 18 -16 -4 -46 -10 -65 -13 -53 -8 -207 -60 -280 -94
-318 -150 -545 -399 -665 -729 -28 -78 -33 -95 -41 -145 -3 -16 -11 -61 -19
-99 -11 -61 -14 -287 -4 -326 3 -12 -8 -16 -47 -18 l-52 -3 -6 45 c-12 77 -4
261 14 366 42 230 158 481 294 635 19 22 39 45 44 50 31 35 157 148 202 182
160 117 385 213 570 243 41 6 82 13 90 15 47 9 278 3 355 -10z m4495 -171 c22
-48 40 -92 40 -99 0 -6 7 -25 15 -41 21 -44 71 -245 88 -359 15 -98 17 -384 4
-465 -3 -19 -9 -55 -12 -78 -9 -60 -11 -68 -29 -137 -9 -33 -19 -71 -22 -85
-3 -14 -10 -40 -16 -57 l-12 -33 -182 0 -182 0 29 75 c38 96 76 242 85 320 3
33 8 63 11 67 17 30 -3 359 -31 483 -6 29 -60 194 -72 220 l-14 30 123 122
c67 67 125 122 130 123 4 0 25 -39 47 -86z m-4560 -138 c14 -2 48 -7 75 -11
28 -4 56 -12 63 -17 6 -6 12 -8 12 -4 0 19 276 -109 320 -150 8 -8 43 -37 78
-64 198 -161 335 -427 361 -703 8 -85 8 -128 -3 -237 -2 -19 -10 -26 -34 -31
l-31 -6 7 56 c27 212 -17 428 -125 618 -61 107 -66 114 -151 200 -200 203
-490 318 -756 299 -134 -9 -153 -12 -246 -41 -355 -110 -615 -399 -691 -770
-14 -67 -18 -285 -6 -327 7 -26 5 -28 -23 -28 -16 0 -30 3 -31 8 0 4 -3 16 -5
27 -9 36 -6 259 5 310 17 88 22 108 42 167 50 151 136 286 259 409 203 203
491 317 765 304 50 -3 101 -6 115 -9z m4123 -256 c82 -285 57 -608 -66 -872
l-41 -88 -53 0 -54 0 20 29 c25 34 75 145 91 198 57 195 55 179 54 383 0 168
-3 206 -22 275 l-21 80 31 32 c18 18 35 30 39 26 4 -5 14 -33 22 -63z m-4118
-14 c95 -20 220 -73 305 -129 69 -45 187 -173 227 -246 94 -167 131 -367 98
-533 l-7 -38 -768 -2 -769 -3 -6 35 c-14 72 -14 190 -1 261 23 122 26 131 62
209 140 296 426 470 744 455 52 -2 104 -6 115 -9z m3859 -187 c3 -17 6 -86 6
-153 0 -120 -12 -204 -44 -301 -20 -61 -92 -207 -115 -232 -9 -10 -24 -30 -34
-45 l-17 -28 -306 0 -306 0 273 268 c150 147 329 324 397 395 69 70 128 127
132 127 4 0 10 -14 14 -31z m1433 -1101 c-4 -73 -8 -146 -11 -163 -2 -16 -7
-57 -11 -90 -10 -106 -56 -354 -72 -395 -3 -8 -7 -20 -8 -26 -2 -6 -10 -36
-18 -65 -9 -30 -16 -56 -16 -59 1 -8 -66 -189 -95 -260 -187 -450 -490 -847
-901 -1181 -87 -71 -293 -212 -365 -251 -25 -14 -63 -36 -85 -49 -22 -13 -42
-24 -45 -25 -3 0 -61 -28 -130 -62 -69 -33 -150 -72 -180 -85 -105 -47 -357
-134 -439 -152 -9 -2 -49 -13 -89 -25 -93 -26 -398 -87 -477 -95 -33 -3 -69
-8 -80 -10 -87 -18 -382 -35 -590 -33 -204 1 -336 10 -510 32 -16 2 -59 7 -95
11 -36 4 -85 11 -110 17 -25 5 -58 12 -75 14 -196 26 -608 149 -855 256 -169
74 -518 265 -528 290 -2 4 -10 8 -18 8 -8 0 -14 5 -14 10 0 6 -5 10 -10 10
-34 0 -305 223 -460 379 -149 149 -233 246 -311 361 -24 36 -47 67 -50 70 -12
10 -128 200 -122 200 3 0 -1 8 -10 18 -46 51 -226 475 -251 593 -3 13 -19 74
-35 134 -34 126 -65 318 -80 485 -9 100 -15 240 -12 263 1 4 1613 7 3582 7
l3582 0 -6 -132z"/>
<path d="M2965 9026 c-82 -38 -147 -96 -185 -167 -34 -62 -35 -68 -34 -169 0
-95 4 -114 36 -200 20 -53 52 -121 72 -153 20 -31 36 -59 36 -62 0 -4 6 -12
13 -20 6 -7 40 -53 75 -101 69 -98 188 -263 200 -279 4 -5 21 -32 37 -60 17
-27 36 -59 43 -70 24 -37 91 -184 98 -212 4 -15 10 -32 14 -38 16 -21 50 -188
56 -273 11 -143 -41 -385 -105 -497 -9 -16 -20 -38 -24 -48 -12 -32 40 15 99
90 128 160 184 323 186 538 0 92 -5 140 -26 250 -9 47 -70 209 -98 260 -6 10
-21 37 -32 60 -28 51 -115 182 -143 215 -11 14 -46 57 -77 95 -31 39 -65 79
-74 90 -10 11 -46 54 -79 96 -130 165 -193 295 -193 397 0 69 45 156 114 220
76 72 75 76 -9 38z"/>
</g>
</svg>
